{"title":"Dracula II ASCENSION 2003 DVDRIP Dual Audio English Hindi GOPI S","uid":11362991,"size":723165264,"categoryP":"video","categoryS":"movies","magnet":"?xt=urn:btih:d076c1488a2c3c554af743b17840e30a4ae3c4b2&amp;dn=Dracula+II+ASCENSION+2003+DVDRIP+Dual+Audio+English+Hindi+GOPI+S&amp;tr=udp%3A%2F%2Ftracker.openbittorrent.com%3A80&amp;tr=udp%3A%2F%2Fopen.demonii.com%3A1337&amp;tr=udp%3A%2F%2Ftracker.coppersurfer.tk%3A6969&amp;tr=udp%3A%2F%2Fexodus.desync.com%3A6969","seeders":0,"leechers":1,"uploader":"jatt13","files":1,"time":1415019698,"description":"General\nUnique ID                      : 246695054081230829824298179480166229636 (0xB997BD3AD12ACEC4A68F06608E9E6684)\nComplete name                  : D:FILMDUBDracula II ASCENSION 2003 DVDRIP Dual Audio English Hindi GOPI SAHI PDR.mkv\nFormat                         : Matroska\nFormat version                 : Version 4 / Version 2\nFile size                      : 690 MiB\nDuration                       : 1h 21mn\nOverall bit rate               : 1 181 Kbps\nMovie name                     : GOPI SAHI\nEncoded date                   : UTC 2014-11-02 23:25:32\nWriting application            : mkvmerge v6.5.0 ('Isn't she lovely') built on Oct 20 2013 12:50:05\nWriting library                : libebml v1.3.0 + libmatroska v1.4.1\n\nVideo\nID                             : 1\nFormat                         : AVC\nFormat/Info                    : Advanced Video Codec\nFormat profile                 : &lt;a class=&quot;__cf_email__&quot; href=&quot;/cdn-cgi/l/email-protection&quot; data-cfemail=&quot;c880a1afa08884fde6f9&quot;&gt;[email&amp;#160;protected]&lt;/a&gt;&lt;script cf-hash='f9e31' type=&quot;text/javascript&quot;&gt;\n/* &lt;![CDATA[ */!function(){try{var t=&quot;currentScript&quot;in document?document.currentScript:function(){for(var t=document.getElementsByTagName(&quot;script&quot;),e=t.length;e--;)if(t[e].getAttribute(&quot;cf-hash&quot;))return t[e]}();if(t&amp;&amp;t.previousSibling){var e,r,n,i,c=t.previousSibling,a=c.getAttribute(&quot;data-cfemail&quot;);if(a){for(e=&quot;&quot;,r=parseInt(a.substr(0,2),16),n=2;a.length-n;n+=2)i=parseInt(a.substr(n,2),16)^r,e+=String.fromCharCode(i);e=document.createTextNode(e),c.parentNode.replaceChild(e,c)}}}catch(u){}}();/* ]]&gt; */&lt;/script&gt;\nFormat settings, CABAC         : Yes\nFormat settings, ReFrames      : 1 frame\nFormat settings, GOP           : N=1\nCodec ID                       : V_MPEG4/ISO/AVC\nDuration                       : 1h 21mn\nBit rate                       : 1 030 Kbps\nWidth                          : 704 pixels\nHeight                         : 288 pixels\nDisplay aspect ratio           : 2.40:1\nFrame rate mode                : Constant\nFrame rate                     : 25.000 fps\nColor space                    : YUV\nChroma subsampling             : 4:2:0\nBit depth                      : 8 bits\nScan type                      : Progressive\nBits/(Pixel*Frame)             : 0.203\nStream size                    : 601 MiB (87%)\nTitle                          : GOPI SAHI\nLanguage                       : English\nDefault                        : Yes\nForced                         : No\n\nAudio #1\nID                             : 2\nFormat                         : MPEG Audio\nFormat version                 : Version 1\nFormat profile                 : Layer 3\nCodec ID                       : A_MPEG/L3\nCodec ID/Hint                  : MP3\nDuration                       : 1h 21mn\nBit rate mode                  : Constant\nBit rate                       : 96.0 Kbps\nChannel(s)                     : 2 channels\nSampling rate                  : 44.1 KHz\nCompression mode               : Lossy\nStream size                    : 56.1 MiB (8%)\nTitle                          : GOPI SAHI\nWriting library                : LAMELAME_MAJOR_VERSI\nLanguage                       : Hindi\nDefault                        : Yes\nForced                         : No\n\nAudio #2\nID                             : 3\nFormat                         : MPEG Audio\nFormat version                 : Version 1\nFormat profile                 : Layer 3\nMode                           : Joint stereo\nMode extension                 : MS Stereo\nCodec ID                       : A_MPEG/L3\nCodec ID/Hint                  : MP3\nDuration                       : 1h 21mn\nBit rate mode                  : Constant\nBit rate                       : 32.0 Kbps\nChannel(s)                     : 2 channels\nSampling rate                  : 44.1 KHz\nCompression mode               : Lossy\nStream size                    : 18.7 MiB (3%)\nTitle                          : GOPI SAHI\nWriting library                : LAME3.98.2\nLanguage                       : English\nDefault                        : No\nForced                         : No\n[IMG]http://imgchicken.com/images/08895632385465686705.jpg[/IMG]\n[IMG]http://imgchicken.com/images/33192545806937932989.jpg[/IMG]\n[IMG]http://imgchicken.com/images/46788988028080393592.jpg[/IMG]","torrent":{"xt":"urn:btih:d076c1488a2c3c554af743b17840e30a4ae3c4b2","amp;dn":"Dracula+II+ASCENSION+2003+DVDRIP+Dual+Audio+English+Hindi+GOPI+S","amp;tr":["udp%3A%2F%2Ftracker.openbittorrent.com%3A80","udp%3A%2F%2Fopen.demonii.com%3A1337","udp%3A%2F%2Ftracker.coppersurfer.tk%3A6969","udp%3A%2F%2Fexodus.desync.com%3A6969"],"infoHash":"d076c1488a2c3c554af743b17840e30a4ae3c4b2","infoHashBuffer":{"type":"Buffer","data":[208,118,193,72,138,44,60,85,74,247,67,177,120,64,227,10,74,227,196,178]},"announce":[],"urlList":[]}}